<svg width="128" height="128" viewBox="0 0 128 128" fill="none" xmlns="http://www.w3.org/2000/svg">
  <rect width="128" height="128" rx="30" fill="#F8F9FA"/>
  <rect x="22" y="16" width="58" height="10" rx="5" fill="#4285F4"/>
  <rect x="98" y="34" width="10" height="50" rx="5" fill="#EA4335"/>
  <rect x="48" y="102" width="56" height="10" rx="5" fill="#FBBC05"/>
  <rect x="18" y="48" width="10" height="40" rx="5" fill="#34A853"/>
  <rect x="30" y="24" width="68" height="78" rx="14" fill="white" stroke="#E2E5EA" stroke-width="3"/>
  <path d="M78 24H84C91.732 24 98 30.268 98 38V44L78 24Z" fill="#E8EAED"/>
  <rect x="40" y="40" width="24" height="4" rx="2" fill="#4285F4"/>
  <rect x="40" y="50" width="36" height="4" rx="2" fill="#34A853"/>
  <rect x="40" y="60" width="28" height="4" rx="2" fill="#FBBC05"/>
  <path d="M40 76C40 69.3726 45.3726 64 52 64H77C83.6274 64 89 69.3726 89 76V84C89 90.6274 83.6274 96 77 96H64L54 104V96H52C45.3726 96 40 90.6274 40 84V76Z" fill="#EA4335"/>
  <path d="M55 74L49 80L55 86" stroke="white" stroke-width="4" stroke-linecap="round" stroke-linejoin="round"/>
  <path d="M74 74L80 80L74 86" stroke="white" stroke-width="4" stroke-linecap="round" stroke-linejoin="round"/>
  <path d="M67 71L61 89" stroke="white" stroke-width="4" stroke-linecap="round"/>
</svg>
