<svg width="1200" height="630" viewBox="0 0 1200 630" fill="none" xmlns="http://www.w3.org/2000/svg">
  <rect width="1200" height="630" rx="32" fill="#F8F9FA"/>
  <circle cx="1038" cy="92" r="74" fill="#4285F4" fill-opacity="0.08"/>
  <circle cx="1094" cy="222" r="56" fill="#EA4335" fill-opacity="0.08"/>
  <circle cx="1012" cy="528" r="98" fill="#FBBC05" fill-opacity="0.12"/>
  <circle cx="156" cy="512" r="110" fill="#34A853" fill-opacity="0.09"/>
  <g transform="translate(88 86)">
    <rect width="278" height="278" rx="64" fill="white" stroke="#E2E5EA" stroke-width="10"/>
    <rect x="-12" y="12" width="160" height="26" rx="13" fill="#4285F4"/>
    <rect x="242" y="64" width="26" height="138" rx="13" fill="#EA4335"/>
    <rect x="94" y="250" width="156" height="26" rx="13" fill="#FBBC05"/>
    <rect x="-18" y="118" width="26" height="112" rx="13" fill="#34A853"/>
    <path d="M196 0H222C252.928 0 278 25.0721 278 56V82L196 0Z" fill="#E8EAED"/>
    <rect x="54" y="86" width="100" height="14" rx="7" fill="#4285F4"/>
    <rect x="54" y="116" width="144" height="12" rx="6" fill="#34A853"/>
    <rect x="54" y="142" width="122" height="12" rx="6" fill="#FBBC05"/>
    <path d="M52 204C52 183.013 69.0132 166 90 166H204C224.987 166 242 183.013 242 204V233C242 253.987 224.987 271 204 271H140L104 299V271H90C69.0132 271 52 253.987 52 233V204Z" fill="#EA4335"/>
    <path d="M105 198L86 218.5L105 239" stroke="white" stroke-width="12" stroke-linecap="round" stroke-linejoin="round"/>
    <path d="M189 198L208 218.5L189 239" stroke="white" stroke-width="12" stroke-linecap="round" stroke-linejoin="round"/>
    <path d="M164 190L132 247" stroke="white" stroke-width="12" stroke-linecap="round"/>
  </g>
  <text x="430" y="216" fill="#202124" font-family="'Segoe UI', Arial, sans-serif" font-size="64" font-weight="700">
    GAS Slack Bot Skill
  </text>
  <text x="430" y="290" fill="#5F6368" font-family="'Segoe UI', Arial, sans-serif" font-size="30" font-weight="500">
    Google Apps Script x Slack bot setup with a logged-in Chrome workflow
  </text>
  <rect x="430" y="356" width="220" height="18" rx="9" fill="#4285F4"/>
  <rect x="430" y="392" width="246" height="16" rx="8" fill="#34A853"/>
  <rect x="430" y="424" width="214" height="16" rx="8" fill="#FBBC05"/>
  <rect x="430" y="456" width="272" height="18" rx="9" fill="#EA4335"/>
  <rect x="430" y="514" width="314" height="58" rx="29" fill="#202124"/>
  <text x="464" y="551" fill="white" font-family="'Segoe UI', Arial, sans-serif" font-size="26" font-weight="600">
    Build, wire, verify, and ship
  </text>
</svg>
